<?xml version="1.0" encoding="UTF-8" standalone="no" ?>
<!DOCTYPE svg PUBLIC "-//W3C//DTD SVG 1.1//EN" "http://www.w3.org/Graphics/SVG/1.1/DTD/svg11.dtd">
<svg xmlns="http://www.w3.org/2000/svg" xmlns:xlink="http://www.w3.org/1999/xlink" version="1.1" width="421.4335" height="264.97" xml:space="preserve">
<desc>Created with Fabric.js 1.6.0-rc.1</desc>
<defs></defs>
<g style="stroke: none; stroke-width: 1; stroke-dasharray: none; stroke-linecap: butt; stroke-linejoin: miter; stroke-miterlimit: 10; fill: none; fill-rule: nonzero; opacity: 1;" transform="translate(279.14 85.86999999999998) rotate(89.04) scale(0.58 0.58)" >
  <path d="M 162.929 66.612 c -2.814 -1.754 -6.514 -0.896 -8.267 1.917 s -0.895 6.513 1.917 8.266 c 6.544 4.081 10.45 11.121 10.45 18.833 s -3.906 14.752 -10.45 18.833 l -98.417 61.365 c -6.943 4.329 -15.359 4.542 -22.512 0.573 c -7.154 -3.97 -11.425 -11.225 -11.425 -19.406 V 34.262 c 0 -8.181 4.271 -15.436 11.425 -19.406 c 7.153 -3.969 15.569 -3.756 22.512 0.573 l 57.292 35.723 c 2.813 1.752 6.513 0.895 8.267 -1.917 c 1.753 -2.812 0.895 -6.513 -1.917 -8.266 L 64.512 5.247 c -10.696 -6.669 -23.661 -7 -34.685 -0.883 C 18.806 10.48 12.226 21.657 12.226 34.262 v 122.73 c 0 12.605 6.58 23.782 17.602 29.898 c 5.25 2.913 10.939 4.364 16.616 4.364 c 6.241 0 12.467 -1.754 18.068 -5.247 l 98.417 -61.365 c 10.082 -6.287 16.101 -17.133 16.101 -29.015 S 173.011 72.899 162.929 66.612 z" style="stroke: none; stroke-width: 1; stroke-dasharray: none; stroke-linecap: butt; stroke-linejoin: miter; stroke-miterlimit: 10; fill: #ed9113; fill-rule: nonzero; opacity: 1;" transform=" matrix(1 0 0 1 0 0) " stroke-linecap="round" />
</g>
<g style="stroke: none; stroke-width: 1; stroke-dasharray: none; stroke-linecap: butt; stroke-linejoin: miter; stroke-miterlimit: 10; fill: none; fill-rule: nonzero; opacity: 1;" transform="translate(155.14 115.87000000000002) scale(5 5)" >
  <path d="M 13.41 0 C 6.015 0 0 6.016 0 13.41 s 6.016 13.41 13.41 13.41 s 13.409 -6.016 13.409 -13.41 S 20.805 0 13.41 0 z M 13.41 22.82 C 8.222 22.82 4 18.598 4 13.41 S 8.222 4 13.41 4 s 9.409 4.222 9.409 9.41 S 18.598 22.82 13.41 22.82 z" style="stroke: none; stroke-width: 1; stroke-dasharray: none; stroke-linecap: butt; stroke-linejoin: miter; stroke-miterlimit: 10; fill: rgb(0,0,0); fill-rule: nonzero; opacity: 1;" transform=" matrix(1 0 0 1 0 0) " stroke-linecap="round" />
</g>
<g style="stroke: none; stroke-width: 1; stroke-dasharray: none; stroke-linecap: butt; stroke-linejoin: miter; stroke-miterlimit: 10; fill: none; fill-rule: nonzero; opacity: 1;" transform="translate(139.14 85.86999999999998) rotate(89.04) scale(0.58 0.58)" >
  <path d="M 162.929 66.612 c -2.814 -1.754 -6.514 -0.896 -8.267 1.917 s -0.895 6.513 1.917 8.266 c 6.544 4.081 10.45 11.121 10.45 18.833 s -3.906 14.752 -10.45 18.833 l -98.417 61.365 c -6.943 4.329 -15.359 4.542 -22.512 0.573 c -7.154 -3.97 -11.425 -11.225 -11.425 -19.406 V 34.262 c 0 -8.181 4.271 -15.436 11.425 -19.406 c 7.153 -3.969 15.569 -3.756 22.512 0.573 l 57.292 35.723 c 2.813 1.752 6.513 0.895 8.267 -1.917 c 1.753 -2.812 0.895 -6.513 -1.917 -8.266 L 64.512 5.247 c -10.696 -6.669 -23.661 -7 -34.685 -0.883 C 18.806 10.48 12.226 21.657 12.226 34.262 v 122.73 c 0 12.605 6.58 23.782 17.602 29.898 c 5.25 2.913 10.939 4.364 16.616 4.364 c 6.241 0 12.467 -1.754 18.068 -5.247 l 98.417 -61.365 c 10.082 -6.287 16.101 -17.133 16.101 -29.015 S 173.011 72.899 162.929 66.612 z" style="stroke: none; stroke-width: 1; stroke-dasharray: none; stroke-linecap: butt; stroke-linejoin: miter; stroke-miterlimit: 10; fill: #ed9119; fill-rule: nonzero; opacity: 1;" transform=" matrix(1 0 0 1 0 0) " stroke-linecap="round" />
</g>
<g style="stroke: none; stroke-width: 1; stroke-dasharray: none; stroke-linecap: butt; stroke-linejoin: miter; stroke-miterlimit: 10; fill: none; fill-rule: nonzero; opacity: 1;" transform="translate(308 10) rotate(48.63) scale(1.85 1.85)" >
  <path d="M 53.908 20.83 c -0.256 0 -0.512 -0.098 -0.707 -0.293 C 46.335 13.67 37.191 9.889 27.454 9.889 S 8.573 13.67 1.707 20.537 c -0.391 0.391 -1.023 0.391 -1.414 0 s -0.391 -1.023 0 -1.414 c 7.244 -7.244 16.89 -11.233 27.161 -11.233 s 19.918 3.989 27.161 11.233 c 0.391 0.391 0.391 1.023 0 1.414 C 54.42 20.732 54.164 20.83 53.908 20.83 z" style="stroke: none; stroke-width: 1; stroke-dasharray: none; stroke-linecap: butt; stroke-linejoin: miter; stroke-miterlimit: 10; fill: #ed8a16; fill-rule: nonzero; opacity: 1;" transform=" matrix(1 0 0 1 0 0) " stroke-linecap="round" />
  <path d="M 6.878 26.708 c -0.256 0 -0.512 -0.098 -0.707 -0.293 c -0.391 -0.391 -0.391 -1.023 0 -1.414 c 11.736 -11.736 30.831 -11.734 42.565 0 c 0.391 0.391 0.391 1.023 0 1.414 s -1.023 0.391 -1.414 0 c -10.956 -10.956 -28.782 -10.956 -39.737 0 C 7.39 26.61 7.134 26.708 6.878 26.708 z" style="stroke: none; stroke-width: 1; stroke-dasharray: none; stroke-linecap: butt; stroke-linejoin: miter; stroke-miterlimit: 10; fill: #ebba11; fill-rule: nonzero; opacity: 1;" transform=" matrix(1 0 0 1 0 0) " stroke-linecap="round" />
  <path d="M 42.151 32.586 c -0.256 0 -0.512 -0.098 -0.707 -0.293 c -3.73 -3.73 -8.699 -5.785 -13.99 -5.785 c -5.291 0 -10.259 2.055 -13.99 5.785 c -0.391 0.391 -1.023 0.391 -1.414 0 s -0.391 -1.023 0 -1.414 c 4.108 -4.108 9.579 -6.371 15.404 -6.371 c 5.825 0 11.295 2.263 15.404 6.371 c 0.391 0.391 0.391 1.023 0 1.414 C 42.663 32.489 42.407 32.586 42.151 32.586 z" style="stroke: none; stroke-width: 1; stroke-dasharray: none; stroke-linecap: butt; stroke-linejoin: miter; stroke-miterlimit: 10; fill: #efce47; fill-rule: nonzero; opacity: 1;" transform=" matrix(1 0 0 1 0 0) " stroke-linecap="round" />
  <path d="M 27.454 33.916 c -3.612 0 -6.551 2.939 -6.551 6.552 s 2.939 6.552 6.551 6.552 c 3.613 0 6.552 -2.939 6.552 -6.552 S 31.067 33.916 27.454 33.916 z" style="stroke: none; stroke-width: 1; stroke-dasharray: none; stroke-linecap: butt; stroke-linejoin: miter; stroke-miterlimit: 10; fill: #efce47; fill-rule: nonzero; opacity: 1;" transform=" matrix(1 0 0 1 0 0) " stroke-linecap="round" />
</g>
<g style="stroke: none; stroke-width: 1; stroke-dasharray: none; stroke-linecap: butt; stroke-linejoin: miter; stroke-miterlimit: 10; fill: none; fill-rule: nonzero; opacity: 1;" transform="translate(15.139999999999986 114.87000000000002) scale(5 5)" >
  <path d="M 13.41 0 C 6.015 0 0 6.016 0 13.41 s 6.016 13.41 13.41 13.41 s 13.409 -6.016 13.409 -13.41 S 20.805 0 13.41 0 z M 13.41 22.82 C 8.222 22.82 4 18.598 4 13.41 S 8.222 4 13.41 4 s 9.409 4.222 9.409 9.41 S 18.598 22.82 13.41 22.82 z" style="stroke: none; stroke-width: 1; stroke-dasharray: none; stroke-linecap: butt; stroke-linejoin: miter; stroke-miterlimit: 10; fill: rgb(0,0,0); fill-rule: nonzero; opacity: 1;" transform=" matrix(1 0 0 1 0 0) " stroke-linecap="round" />
</g>
<g style="stroke: none; stroke-width: 1; stroke-dasharray: none; stroke-linecap: butt; stroke-linejoin: miter; stroke-miterlimit: 10; fill: none; fill-rule: nonzero; opacity: 1;" transform="translate(10 85.87) scale(2.3 0.21)" >
  <path d="M 6 124 h 112 c 3.3 0 6 -2.7 6 -6 V 6 c 0 -3.3 -2.7 -6 -6 -6 H 6 C 2.7 0 0 2.7 0 6 v 112 C 0 121.3 2.7 124 6 124 z" style="stroke: none; stroke-width: 1; stroke-dasharray: none; stroke-linecap: butt; stroke-linejoin: miter; stroke-miterlimit: 10; fill: #000008; fill-rule: nonzero; opacity: 1;" transform="" stroke-linecap="round" />
</g>
</svg>